<svg xmlns="http://www.w3.org/2000/svg" style="display: none;">
  <symbol id="arrow-right" viewBox="0 0 8 14">
    <path d="M1.91655 0.933331L7.53322 6.53333C7.59989 6.6 7.647 6.67222 7.67455 6.75C7.70255 6.82778 7.71655 6.91111 7.71655 7C7.71655 7.08889 7.70255 7.17222 7.67455 7.25C7.647 7.32778 7.59989 7.4 7.53322 7.46667L1.91655 13.0833C1.761 13.2389 1.56655 13.3167 1.33322 13.3167C1.09989 13.3167 0.899886 13.2333 0.73322 13.0667C0.566553 12.9 0.48322 12.7056 0.48322 12.4833C0.48322 12.2611 0.566553 12.0667 0.73322 11.9L5.63322 7L0.73322 2.1C0.577664 1.94444 0.499886 1.75289 0.499886 1.52533C0.499886 1.29733 0.583219 1.1 0.749886 0.933331C0.916553 0.766664 1.111 0.683331 1.33322 0.683331C1.55544 0.683331 1.74989 0.766664 1.91655 0.933331Z" fill="currentColor"/>
  </symbol>

  <symbol id="edit" viewBox="0 0 36 36">
    <path fill="currentColor" d="M33.87 8.32L28 2.42a2.07 2.07 0 0 0-2.92 0L4.27 23.2l-1.9 8.2a2.06 2.06 0 0 0 2 2.5a2 2 0 0 0 .43 0l8.29-1.9l20.78-20.76a2.07 2.07 0 0 0 0-2.92M12.09 30.2l-7.77 1.63l1.77-7.62L21.66 8.7l6 6ZM29 13.25l-6-6l3.48-3.46l5.9 6Z" className="clr-i-outline clr-i-outline-path-1"></path>
    <path fill="none" d="M0 0h36v36H0z"></path>
  </symbol>

  <symbol id="calendar-delete" viewBox="0 0 26 26">
    <path d="M4.33333 24.9166H21.6667C21.954 24.9166 22.2295 24.8025 22.4327 24.5993C22.6359 24.3962 22.75 24.1206 22.75 23.8333V6.49998C22.7499 6.21269 22.6358 5.93718 22.4326 5.73406L18.0993 1.40073C17.8961 1.19755 17.6206 1.08337 17.3333 1.08331H4.33333C4.04602 1.08331 3.77047 1.19745 3.5673 1.40061C3.36414 1.60378 3.25 1.87933 3.25 2.16665V23.8333C3.25 24.1206 3.36414 24.3962 3.5673 24.5993C3.77047 24.8025 4.04602 24.9166 4.33333 24.9166ZM5.41667 3.24998H16.8848L20.5833 6.94848V22.75H5.41667V3.24998ZM16.4742 11.0576L14.5318 13L16.4742 14.9424C16.5777 15.0423 16.6603 15.1619 16.717 15.294C16.7738 15.4262 16.8037 15.5684 16.8049 15.7122C16.8062 15.8561 16.7788 15.9987 16.7243 16.1318C16.6698 16.265 16.5894 16.3859 16.4877 16.4877C16.386 16.5894 16.265 16.6698 16.1319 16.7243C15.9987 16.7788 15.8561 16.8062 15.7122 16.8049C15.5684 16.8037 15.4262 16.7738 15.2941 16.717C15.1619 16.6602 15.0424 16.5777 14.9424 16.4742L13 14.5318L11.0576 16.4742C10.8533 16.6716 10.5796 16.7808 10.2956 16.7783C10.0115 16.7758 9.73981 16.6619 9.53895 16.461C9.33809 16.2602 9.22416 15.9885 9.22169 15.7044C9.21922 15.4204 9.32841 15.1467 9.52575 14.9424L11.4682 13L9.52575 11.0576C9.32841 10.8532 9.21922 10.5796 9.22169 10.2955C9.22416 10.0115 9.33809 9.73979 9.53895 9.53893C9.73981 9.33807 10.0115 9.22414 10.2956 9.22167C10.5796 9.2192 10.8533 9.32839 11.0576 9.52573L13 11.4681L14.9424 9.52573C15.1467 9.32839 15.4204 9.2192 15.7044 9.22167C15.9885 9.22414 16.2602 9.33807 16.4611 9.53893C16.6619 9.73979 16.7758 10.0115 16.7783 10.2955C16.7808 10.5796 16.6716 10.8532 16.4742 11.0576Z" fill="currentColor"/>
  </symbol>

  <symbol id="delete" viewBox="0 0 36 36">
    <path fill="currentColor" d="M20.12 18l8.59-8.59a1.5 1.5 0 0 0-2.12-2.12L18 15.88l-8.59-8.59a1.5 1.5 0 1 0-2.12 2.12L15.88 18l-8.59 8.59a1.5 1.5 0 1 0 2.12 2.12L18 20.12l8.59 8.59a1.5 1.5 0 0 0 2.12-2.12Z"/>
  </symbol>
</svg>
